<svg width="46" height="62" viewBox="0 0 46 62" fill="none" xmlns="http://www.w3.org/2000/svg">
    <g id="Group 2">
        <path id="Vector"
              d="M24.2733 3.51633L24.9997 3.59932C25.6939 3.67808 26.3908 3.75685 27.0835 3.84546C30.5119 4.28008 33.7512 5.1894 36.714 6.54882C38.2359 7.24786 39.7198 8.05451 41.2916 8.90898C41.6875 9.12348 42.0814 9.33797 42.4773 9.55106C42.4661 12.6433 42.4675 15.763 42.4675 18.7906C42.4689 22.8224 42.4703 26.9914 42.4443 31.0872C42.4154 36.0199 40.8633 40.5686 37.6986 44.9985C34.074 50.0754 29.2679 54.2718 23.0306 57.7958C16.3496 53.8547 11.324 49.2905 7.69867 43.8803C4.83497 39.6087 3.46993 35.1282 3.52619 30.1814C3.58808 24.6474 3.56276 19.0339 3.53814 13.6054C3.53182 12.2178 3.52549 10.8303 3.52056 9.44346C8.95611 6.15429 14.4641 4.25758 20.3174 3.65628C20.6528 3.62182 20.9883 3.58596 21.3238 3.54939L21.6381 3.51563H24.2733M24.4751 0C23.4659 0 22.4581 0 21.4496 0C20.9531 0.052745 20.4545 0.1076 19.9573 0.158938C12.905 0.884006 6.48272 3.35247 0.539417 7.15785C0.129412 7.42087 -0.00139533 7.71554 1.12003e-05 8.18813C0.0211092 15.5063 0.0921387 22.8252 0.0105598 30.1427C-0.054844 35.906 1.60275 41.1017 4.778 45.8389C9.35697 52.6718 15.5731 57.677 22.6846 61.6519C22.7626 61.6962 22.8723 61.7166 22.9842 61.7166C23.1108 61.7166 23.2409 61.6898 23.3337 61.6413C30.1315 58.0223 36.0523 53.3547 40.5623 47.0415C43.9633 42.2811 45.9275 37.001 45.962 31.1083C46.0084 23.5278 45.9669 15.9466 46 8.36676C46.0028 7.70499 45.7848 7.32382 45.2404 7.03759C42.8894 5.80617 40.5919 4.45871 38.1839 3.35388C34.8026 1.80247 31.2286 0.827042 27.5294 0.357963C26.5103 0.227859 25.492 0.118149 24.4751 0Z"
              fill="#A066BF"/>
        <path id="Vector_2" d="M21.937 39.0552L19.7056 41.2874L10.1826 31.7652L12.4148 29.5337L21.937 39.0552Z"
              fill="#A066BF"/>
        <path id="Vector_3" d="M16.6196 32.6823L8.35913 40.9404L10.4767 43.0586L18.7372 34.8005L16.6196 32.6823Z"
              fill="#A066BF"/>
        <g id="Group">
            <g id="Group_2">
                <path id="Vector_4"
                      d="M28.9831 27.3613L36.6269 19.7189L38.397 13.0773L31.9319 15.0232L24.2881 22.667L28.9831 27.3613Z"
                      fill="#A066BF"/>
            </g>
            <g id="Group_3">
                <path id="Vector_5"
                      d="M19.5046 36.8442L22.0081 34.3401L17.3121 29.6454L14.8086 32.1496L19.5046 36.8442Z"
                      fill="#A066BF"/>
            </g>
        </g>
        <path id="Vector_6" d="M24.0596 38.802L26.291 41.0342L35.814 31.512L33.5811 29.2805L24.0596 38.802Z"
              fill="#A066BF"/>
        <path id="Vector_7" d="M27.26 34.5517L35.5193 42.811L37.6382 40.6921L29.3789 32.4328L27.26 34.5517Z"
              fill="#A066BF"/>
        <g id="Group_4">
            <path id="Vector_8"
                  d="M28.687 29.3924L14.0647 14.77L7.59888 12.8241L9.3697 19.4643L23.992 34.0874L26.4942 36.5896L31.19 31.8967L28.687 29.3924Z"
                  fill="#A066BF"/>
        </g>
    </g>
</svg>
