<svg width="30" height="30" viewBox="0 0 30 30" fill="none" xmlns="http://www.w3.org/2000/svg">
    <g id="Group">
        <path id="Vector"
              d="M29.3461 9.59891C27.2569 1.13262 17.55 -1.74888 9.84827 1.01675C8.02908 1.67712 6.0397 3.21035 4.70485 4.57628C0.214413 9.18897 -1.35997 15.869 1.29132 21.2569C1.69529 22.0773 2.37191 22.9761 2.9797 23.6682C3.5523 24.3202 4.0356 24.6522 4.74058 25.1427C4.83934 25.2113 5.35152 25.5157 5.31528 25.6898C5.06312 26.8936 4.46689 27.8408 5.1477 28.3661C5.84795 28.9069 6.64276 29.1932 7.50849 29.3091L8.78975 28.0995L10.2906 29.8162C11.4069 29.9855 13.0028 30.0375 14.0088 29.9736C14.1554 29.9679 15.9047 27.8496 15.9047 27.8496L17.7244 29.6499C18.6432 29.5517 20.2874 29.4296 20.9777 28.7178C21.2992 28.3874 21.4048 28.1624 21.3932 27.7457C21.3932 27.5316 21.2582 26.053 21.3171 26.0415C24.6523 25.3126 27.3031 22.8478 28.7777 19.8608C30.3988 16.5725 30.2118 13.0888 29.3461 9.59891ZM8.27021 21.0511C7.57311 21.7614 6.43946 21.8455 5.51437 21.7234C4.14119 21.5426 3.36213 20.3596 2.9818 19.4342C2.72072 18.7978 2.53003 18.0704 2.47382 17.3965C2.3283 15.6487 2.22587 12.7111 4.9859 12.5718C8.131 12.4123 8.33692 15.9054 8.5938 17.8989C8.72829 18.9386 9.11019 20.1949 8.27021 21.0511ZM10.8269 23.5788C10.7676 23.7399 10.6583 23.8298 10.4161 23.824C10.2381 23.8199 10.06 23.7435 10.0017 23.5752C9.94388 23.4084 10.0663 23.2312 10.1214 23.0811C10.1813 22.919 10.247 22.7589 10.32 22.602C10.3915 22.4498 10.5554 22.0549 10.7812 22.083C11.0712 22.1194 11.0266 23.0353 10.8269 23.5788ZM13.4698 23.824C13.2839 23.8474 13.0916 23.796 13.028 23.6479C12.9093 23.3715 12.685 22.1682 12.9897 22.0866C13.2592 22.0144 13.6716 22.9486 13.8528 23.3715C13.9605 23.623 13.7209 23.7924 13.4698 23.824ZM23.2172 18.4512C23.1583 19.4545 22.9272 20.3534 22.0179 21.0927C21.1521 21.7962 20.1766 22.0762 19.0981 22.0212C18.6968 22.0004 18.2849 21.9827 17.8978 21.9058C17.4544 21.8185 17.0425 21.6543 16.7158 21.3223C16.1794 20.7763 16.0481 19.9969 15.9929 19.3007C15.8511 17.5191 15.8506 15.5947 16.6422 13.9248C17.2296 12.6851 18.9773 12.0944 20.371 12.2923C23.5439 12.7443 23.3422 16.3179 23.2172 18.4512Z"
              fill="white" fill-opacity="0.6"/>
    </g>
</svg>
