<svg width="316" height="316" viewBox="0 0 316 316" fill="none" xmlns="http://www.w3.org/2000/svg">
    <path d="M0 0H316V316H0V0Z" fill="white"/>
    <path d="M266 236C266 252.569 252.569 266 236 266C219.431 266 206 252.569 206 236C206 219.431 219.431 206 236 206C252.569 206 266 219.431 266 236Z"
          fill="#610094"/>
    <path d="M110 80C110 96.5685 96.5685 110 80 110C63.4315 110 50 96.5685 50 80C50 63.4315 63.4315 50 80 50C96.5685 50 110 63.4315 110 80Z"
          fill="#610094"/>
    <path d="M128 158C128 174.569 141.431 188 158 188C174.569 188 188 174.569 188 158C188 141.431 174.569 128 158 128C141.431 128 128 141.431 128 158Z"
          fill="#610094"/>
</svg>
